<svg width="28" height="24" viewBox="0 0 28 24" fill="none" xmlns="http://www.w3.org/2000/svg">
<path d="M0.0800001 5V1.13H7.31V23H2.99V5H0.0800001ZM15.1191 11.42C13.1191 10.38 12.1191 8.77 12.1191 6.59C12.1191 5.51 12.3891 4.53 12.9291 3.65C13.4891 2.75 14.3191 2.04 15.4191 1.52C16.5391 0.979999 17.8991 0.709999 19.4991 0.709999C21.0991 0.709999 22.4491 0.979999 23.5491 1.52C24.6691 2.04 25.4991 2.75 26.0391 3.65C26.5991 4.53 26.8791 5.51 26.8791 6.59C26.8791 7.69 26.6091 8.66 26.0691 9.5C25.5291 10.32 24.8091 10.96 23.9091 11.42C25.0091 11.9 25.8691 12.6 26.4891 13.52C27.1091 14.44 27.4191 15.53 27.4191 16.79C27.4191 18.15 27.0691 19.34 26.3691 20.36C25.6891 21.36 24.7491 22.13 23.5491 22.67C22.3491 23.21 20.9991 23.48 19.4991 23.48C17.9991 23.48 16.6491 23.21 15.4491 22.67C14.2691 22.13 13.3291 21.36 12.6291 20.36C11.9491 19.34 11.6091 18.15 11.6091 16.79C11.6091 15.53 11.9191 14.44 12.5391 13.52C13.1591 12.58 14.0191 11.88 15.1191 11.42ZM22.7991 7.19C22.7991 6.21 22.4991 5.45 21.8991 4.91C21.3191 4.37 20.5191 4.1 19.4991 4.1C18.4991 4.1 17.6991 4.37 17.0991 4.91C16.5191 5.45 16.2291 6.22 16.2291 7.22C16.2291 8.12 16.5291 8.84 17.1291 9.38C17.7491 9.92 18.5391 10.19 19.4991 10.19C20.4591 10.19 21.2491 9.92 21.8691 9.38C22.4891 8.82 22.7991 8.09 22.7991 7.19ZM19.4991 13.25C18.3591 13.25 17.4291 13.54 16.7091 14.12C16.0091 14.7 15.6591 15.53 15.6591 16.61C15.6591 17.61 15.9991 18.43 16.6791 19.07C17.3791 19.69 18.3191 20 19.4991 20C20.6791 20 21.6091 19.68 22.2891 19.04C22.9691 18.4 23.3091 17.59 23.3091 16.61C23.3091 15.55 22.9591 14.73 22.2591 14.15C21.5591 13.55 20.6391 13.25 19.4991 13.25Z" fill="#2A3246"/>
</svg>
