<svg width="16" height="24" viewBox="0 0 16 24" fill="none" xmlns="http://www.w3.org/2000/svg">
<path d="M10.93 6.59C10.73 5.75 10.38 5.12 9.88 4.7C9.4 4.28 8.7 4.07 7.78 4.07C6.4 4.07 5.38 4.63 4.72 5.75C4.08 6.85 3.75 8.65 3.73 11.15C4.21 10.35 4.91 9.73 5.83 9.29C6.75 8.83 7.75 8.6 8.83 8.6C10.13 8.6 11.28 8.88 12.28 9.44C13.28 10 14.06 10.82 14.62 11.9C15.18 12.96 15.46 14.24 15.46 15.74C15.46 17.16 15.17 18.43 14.59 19.55C14.03 20.65 13.2 21.51 12.1 22.13C11 22.75 9.69 23.06 8.17 23.06C6.09 23.06 4.45 22.6 3.25 21.68C2.07 20.76 1.24 19.48 0.76 17.84C0.3 16.18 0.0700002 14.14 0.0700002 11.72C0.0700002 8.06 0.7 5.3 1.96 3.44C3.22 1.56 5.21 0.619998 7.93 0.619998C10.03 0.619998 11.66 1.19 12.82 2.33C13.98 3.47 14.65 4.89 14.83 6.59H10.93ZM7.87 12.05C6.81 12.05 5.92 12.36 5.2 12.98C4.48 13.6 4.12 14.5 4.12 15.68C4.12 16.86 4.45 17.79 5.11 18.47C5.79 19.15 6.74 19.49 7.96 19.49C9.04 19.49 9.89 19.16 10.51 18.5C11.15 17.84 11.47 16.95 11.47 15.83C11.47 14.67 11.16 13.75 10.54 13.07C9.94 12.39 9.05 12.05 7.87 12.05Z" fill="#2A3246"/>
</svg>
