<svg width="56" height="24" viewBox="0 0 56 24" fill="none" xmlns="http://www.w3.org/2000/svg">
<path d="M4.25 11.42C2.25 10.38 1.25 8.77 1.25 6.59C1.25 5.51 1.52 4.53 2.06 3.65C2.62 2.75 3.45 2.04 4.55 1.52C5.67 0.979999 7.03 0.709999 8.63 0.709999C10.23 0.709999 11.58 0.979999 12.68 1.52C13.8 2.04 14.63 2.75 15.17 3.65C15.73 4.53 16.01 5.51 16.01 6.59C16.01 7.69 15.74 8.66 15.2 9.5C14.66 10.32 13.94 10.96 13.04 11.42C14.14 11.9 15 12.6 15.62 13.52C16.24 14.44 16.55 15.53 16.55 16.79C16.55 18.15 16.2 19.34 15.5 20.36C14.82 21.36 13.88 22.13 12.68 22.67C11.48 23.21 10.13 23.48 8.63 23.48C7.13 23.48 5.78 23.21 4.58 22.67C3.4 22.13 2.46 21.36 1.76 20.36C1.08 19.34 0.74 18.15 0.74 16.79C0.74 15.53 1.05 14.44 1.67 13.52C2.29 12.58 3.15 11.88 4.25 11.42ZM11.93 7.19C11.93 6.21 11.63 5.45 11.03 4.91C10.45 4.37 9.65 4.1 8.63 4.1C7.63 4.1 6.83 4.37 6.23 4.91C5.65 5.45 5.36 6.22 5.36 7.22C5.36 8.12 5.66 8.84 6.26 9.38C6.88 9.92 7.67 10.19 8.63 10.19C9.59 10.19 10.38 9.92 11 9.38C11.62 8.82 11.93 8.09 11.93 7.19ZM8.63 13.25C7.49 13.25 6.56 13.54 5.84 14.12C5.14 14.7 4.79 15.53 4.79 16.61C4.79 17.61 5.13 18.43 5.81 19.07C6.51 19.69 7.45 20 8.63 20C9.81 20 10.74 19.68 11.42 19.04C12.1 18.4 12.44 17.59 12.44 16.61C12.44 15.55 12.09 14.73 11.39 14.15C10.69 13.55 9.77 13.25 8.63 13.25ZM19.8673 11.78C19.8673 8.32 20.4873 5.61 21.7273 3.65C22.9873 1.69 25.0673 0.709999 27.9673 0.709999C30.8673 0.709999 32.9373 1.69 34.1773 3.65C35.4373 5.61 36.0673 8.32 36.0673 11.78C36.0673 15.26 35.4373 17.99 34.1773 19.97C32.9373 21.95 30.8673 22.94 27.9673 22.94C25.0673 22.94 22.9873 21.95 21.7273 19.97C20.4873 17.99 19.8673 15.26 19.8673 11.78ZM31.9273 11.78C31.9273 10.3 31.8273 9.06 31.6273 8.06C31.4473 7.04 31.0673 6.21 30.4873 5.57C29.9273 4.93 29.0873 4.61 27.9673 4.61C26.8473 4.61 25.9973 4.93 25.4173 5.57C24.8573 6.21 24.4773 7.04 24.2773 8.06C24.0973 9.06 24.0073 10.3 24.0073 11.78C24.0073 13.3 24.0973 14.58 24.2773 15.62C24.4573 16.64 24.8373 17.47 25.4173 18.11C25.9973 18.73 26.8473 19.04 27.9673 19.04C29.0873 19.04 29.9373 18.73 30.5173 18.11C31.0973 17.47 31.4773 16.64 31.6573 15.62C31.8373 14.58 31.9273 13.3 31.9273 11.78ZM39.2619 11.78C39.2619 8.32 39.8819 5.61 41.1219 3.65C42.3819 1.69 44.4619 0.709999 47.3619 0.709999C50.2619 0.709999 52.3319 1.69 53.5719 3.65C54.8319 5.61 55.4619 8.32 55.4619 11.78C55.4619 15.26 54.8319 17.99 53.5719 19.97C52.3319 21.95 50.2619 22.94 47.3619 22.94C44.4619 22.94 42.3819 21.95 41.1219 19.97C39.8819 17.99 39.2619 15.26 39.2619 11.78ZM51.3219 11.78C51.3219 10.3 51.2219 9.06 51.0219 8.06C50.8419 7.04 50.4619 6.21 49.8819 5.57C49.3219 4.93 48.4819 4.61 47.3619 4.61C46.2419 4.61 45.3919 4.93 44.8119 5.57C44.2519 6.21 43.8719 7.04 43.6719 8.06C43.4919 9.06 43.4019 10.3 43.4019 11.78C43.4019 13.3 43.4919 14.58 43.6719 15.62C43.8519 16.64 44.2319 17.47 44.8119 18.11C45.3919 18.73 46.2419 19.04 47.3619 19.04C48.4819 19.04 49.3319 18.73 49.9119 18.11C50.4919 17.47 50.8719 16.64 51.0519 15.62C51.2319 14.58 51.3219 13.3 51.3219 11.78Z" fill="#2A3246"/>
</svg>
